<svg viewBox="0 0 176 176" xmlns="http://www.w3.org/2000/svg" xmlns:xlink="http://www.w3.org/1999/xlink">
    <defs/>
    <g transform="translate(-501.48,-81.95)">
        <g transform="translate(544.15,124.72)" id="group1">
            <path fill="none" transform="matrix(1.00,0.00,-0.00,1.00,69.9,31.0)" stroke="#191919" id="shape2" d="M.0,.0L19.8,.0" stroke-width="5"/>
            <path fill="none" transform="matrix(1.00,-0.02,0.02,1.00,69.9,40.6)" stroke="#191919" id="shape3" d="M.0,.0L20.4,.0" stroke-width="5"/>
            <path fill="none" transform="matrix(1.00,-0.01,0.01,1.00,69.9,50.4)" stroke="#191919" id="shape4" d="M.0,.0L20.3,.0" stroke-width="5"/>
            <path fill="none" transform="matrix(1.00,-0.02,0.02,1.00,70.6,59.7)" stroke="#191919" id="shape5" d="M.0,.0L20.4,.0" stroke-width="5"/>
            <path fill="none" transform="matrix(1.00,-0.01,0.01,1.00,-0.0,31.3)" stroke="#191919" id="shape6" d="M.0,.0L20.3,.0" stroke-width="5"/>
            <path fill="none" transform="matrix(1.00,-0.02,0.02,1.00,0.6,40.6)" stroke="#191919" id="shape7" d="M.0,.0L20.4,.0" stroke-width="5"/>
            <path fill="none" transform="matrix(1.00,-0.01,0.01,1.00,0.6,50.4)" stroke="#191919" id="shape8" d="M.0,.0L20.3,.0" stroke-width="5"/>
            <path fill="none" transform="matrix(1.00,-0.02,0.02,1.00,1.3,59.7)" stroke="#191919" id="shape9" d="M.0,.0L20.4,.0" stroke-width="5"/>
            <path fill="none" transform="matrix(-0.00,1.00,-1.00,-0.00,58.9,-0.0)" stroke="#191919" id="shape10" d="M.0,.0L20.3,.0" stroke-width="5"/>
            <path fill="none" transform="matrix(0.00,1.00,-1.00,0.00,49.6,0.5)" stroke="#191919" id="shape11" d="M.0,.0L20.4,.0" stroke-width="5"/>
            <path fill="none" transform="matrix(-0.00,1.00,-1.00,-0.00,39.8,0.3)" stroke="#191919" id="shape12" d="M.0,.0L20.3,.0" stroke-width="5"/>
            <path fill="none" transform="matrix(0.00,1.00,-1.00,0.00,30.5,0.8)" stroke="#191919" id="shape13" d="M.0,.0L20.4,.0" stroke-width="5"/>
            <path fill="none" transform="matrix(0.02,-1.00,1.00,0.02,30.5,90.7)" stroke="#191919" id="shape14" d="M.0,.0L20.3,.0" stroke-width="5"/>
            <path fill="none" transform="matrix(0.01,-1.00,1.00,0.01,39.8,90.3)" stroke="#191919" id="shape15" d="M.0,.0L20.4,.0" stroke-width="5"/>
            <path fill="none" transform="matrix(0.02,-1.00,1.00,0.02,49.7,90.6)" stroke="#191919" id="shape16" d="M.0,.0L20.3,.0" stroke-width="5"/>
            <path fill="none" transform="matrix(0.01,-1.00,1.00,0.01,59.0,90.2)" stroke="#191919" id="shape17" d="M.0,.0L20.4,.0" stroke-width="5"/>
            <path fill="#f5cfcf" transform="translate(20.67,21.19)" stroke="#323232" id="shape18" fill-rule="nonzero" d="M49.3,38.3L49.3,11.0C49.3,4.9,44.3,.0,38.3,.0L11.0,.0C4.9,.0,.0,4.9,.0,11.0L.0,38.3C.0,44.3,4.9,49.3,11.0,49.3L38.3,49.3C44.3,49.3,49.3,44.3,49.3,38.3z" stroke-width="5"/>
        </g>
        <path fill="#ffbf28" transform="translate(529.13,109.61)" stroke="#323232" id="shape19" fill-rule="nonzero" d="M71.1,-10.5C76.6,-9.7,81.8,-8.3,86.8,-6.3L97.5,-18.2L110.0,-10.9L105.2,4.3L105.2,4.3C109.4,7.7,113.3,11.5,116.7,15.8L131.9,10.9L139.1,23.4L127.3,34.2L127.3,34.2C129.3,39.1,130.7,44.4,131.5,49.9L147.1,53.3L147.1,67.7L131.5,71.1L131.5,71.1C130.7,76.6,129.3,81.8,127.3,86.8L139.1,97.5L131.9,110.0L116.7,105.2L116.7,105.2C113.3,109.4,109.4,113.3,105.2,116.7L110.0,131.9L97.5,139.1L86.8,127.3L86.8,127.3C81.8,129.3,76.6,130.7,71.1,131.5L67.7,147.1L53.3,147.1L49.9,131.5L49.9,131.5C44.4,130.7,39.1,129.3,34.2,127.3L23.4,139.1L10.9,131.9L15.8,116.7L15.8,116.7C11.5,113.3,7.7,109.4,4.3,105.2L-10.9,110.0L-18.2,97.5L-6.3,86.8L-6.3,86.8C-8.3,81.8,-9.7,76.6,-10.5,71.1L-26.2,67.7L-26.2,53.3L-10.5,49.9L-10.5,49.9C-9.7,44.4,-8.3,39.1,-6.3,34.2L-18.2,23.4L-10.9,10.9L4.3,15.8L4.3,15.8C7.7,11.5,11.5,7.7,15.8,4.3L10.9,-10.9L23.4,-18.2L34.2,-6.3L34.2,-6.3C39.1,-8.3,44.4,-9.7,49.9,-10.5L53.3,-26.2L67.7,-26.2L71.1,-10.5zM.0,60.5C.0,93.9,27.1,120.9,60.5,120.9C93.9,120.9,120.9,93.9,120.9,60.5C120.9,27.1,93.9,.0,60.5,.0C27.1,.0,.0,27.1,.0,60.5z" stroke-width="3"/>
        <g transform="translate(530.13,130.08)" id="shape20">
            <text style="fill:#191919;font-family:Arial;font-size:36.00pt" xml:space="preserve">
                <tspan x="44.0" y="56.0">P</tspan>
            </text>
        </g>
    </g>
</svg>
